Coordinates
version=1
nRows=14
nColumns=32
inDegrees=yes

Units are S.I. units (second, meters, Newtons, ...)
If the header above contains a line with 'inDegrees', this indicates whether rotational values are in degrees (yes) or radians (no).

endheader
time	pelvis_tilt	pelvis_list	pelvis_rotation	pelvis_tx	pelvis_ty	pelvis_tz	hip_flexion_r	hip_adduction_r	hip_rotation_r	knee_angle_r	ankle_angle_r	subtalar_angle_r	mtp_angle_r	hip_flexion_l	hip_adduction_l	hip_rotation_l	knee_angle_l	ankle_angle_l	subtalar_angle_l	mtp_angle_l	lumbar_extension	lumbar_bending	lumbar_rotation	arm_flex_r	arm_add_r	arm_rot_r	elbow_flex_r	arm_flex_l	arm_add_l	arm_rot_l	elbow_flex_l
      1.62000000	     -2.57795686	     -5.04568044	     -1.03972666	     -1.01760536	      0.83014604	     -0.27101388	     38.07268550	      7.14798978	     -0.46765568	    -51.29421513	     13.00686759	    -27.57283059	      0.00000000	      1.81420897	     -2.04650995	      2.93428473	    -54.25176438	     13.90177601	    -19.23726775	      0.00000000	     -9.47576416	      9.66291627	      1.81353228	      0.00000000	      0.00000000	      0.00000000	      0.00000000	      0.00000000	      0.00000000	      0.00000000	      0.00000000
      1.63000000	     -3.18595517	     -4.76305330	     -1.92595648	     -1.00765819	      0.82830904	     -0.27152394	     38.54452493	      7.29348457	      0.19662852	    -52.35739725	     13.45732990	    -27.45902075	      0.00000000	      3.32041933	     -1.38124004	      2.70889797	    -56.78134896	     11.80448061	    -19.86296631	      0.00000000	     -8.96642157	      9.98715544	      2.37307851	      0.00000000	      0.00000000	      0.00000000	      0.00000000	      0.00000000	      0.00000000	      0.00000000	      0.00000000
      1.64000000	     -3.91197033	     -4.48760693	     -2.01879086	     -0.99964199	      0.82771045	     -0.27056235	     38.92705865	      7.41072964	      0.85849607	    -52.78335946	     13.72547570	    -28.02207267	      0.00000000	      5.50438080	     -1.24309929	      2.58620049	    -59.46227659	     10.90708241	    -18.63581277	      0.00000000	     -8.45932851	     10.07014710	      2.30248430	      0.00000000	      0.00000000	      0.00000000	      0.00000000	      0.00000000	      0.00000000	      0.00000000	      0.00000000
      1.65000000	     -2.82876535	     -4.67721603	     -2.59846784	     -0.98797011	      0.82795920	     -0.27066519	     37.26011774	      7.89606931	      1.12677670	    -53.49196251	     14.80254105	    -28.16109771	      0.00000000	      5.09624667	     -1.49453300	      1.76978084	    -61.59356507	     11.60193838	    -17.45078040	      0.00000000	     -9.44199997	     10.74171125	      2.79611166	      0.00000000	      0.00000000	      0.00000000	      0.00000000	      0.00000000	      0.00000000	      0.00000000	      0.00000000
      1.66000000	     -2.76723363	     -4.45464487	     -2.72356522	     -0.97873021	      0.82819953	     -0.26990414	     36.55228846	      8.00954353	      1.86589870	    -53.73623317	     15.55273815	    -28.53153010	      0.00000000	      6.41226666	     -1.64012110	      1.08870002	    -64.11058488	     13.05421803	    -15.43087330	      0.00000000	     -9.66303337	     10.74555494	      2.83417019	      0.00000000	      0.00000000	      0.00000000	      0.00000000	      0.00000000	      0.00000000	      0.00000000	      0.00000000
      1.67000000	     -3.94671686	     -3.73378102	     -3.11563573	     -0.97067671	      0.82780570	     -0.26964444	     37.33496593	      7.54462700	      2.38404143	    -54.02631708	     16.01468474	    -28.39139461	      0.00000000	      9.23493833	     -1.14552825	      0.37060023	    -66.20639129	     13.56652100	    -14.72330037	      0.00000000	     -8.74635963	     10.29436254	      2.60223345	      0.00000000	      0.00000000	      0.00000000	      0.00000000	      0.00000000	      0.00000000	      0.00000000	      0.00000000
      1.68000000	     -2.70995697	     -4.06274744	     -3.40744470	     -0.95931967	      0.82886228	     -0.26878927	     35.24354944	      8.03988441	      2.60869969	    -54.31177727	     17.05177621	    -28.30620509	      0.00000000	      9.24567270	     -2.01089979	     -0.91889271	    -68.53641259	     15.38374745	    -13.46419728	      0.00000000	    -10.07270306	     10.77854457	      2.90673221	      0.00000000	      0.00000000	      0.00000000	      0.00000000	      0.00000000	      0.00000000	      0.00000000	      0.00000000
      1.69000000	     -2.62302882	     -4.17000675	     -3.30678235	     -0.95028584	      0.82972246	     -0.26797623	     34.46398021	      8.03380125	      2.30278056	    -54.32785569	     17.70246373	    -28.34651336	      0.00000000	     10.90386810	     -2.64186666	     -1.49241286	    -70.56507778	     15.99395812	    -13.49104275	      0.00000000	    -10.29385374	     10.99829657	      2.42941506	      0.00000000	      0.00000000	      0.00000000	      0.00000000	      0.00000000	      0.00000000	      0.00000000	      0.00000000
      1.70000000	     -4.09540233	     -3.83794575	     -3.38926578	     -0.94207799	      0.82982548	     -0.26730422	     35.21481799	      8.02158748	      2.92053870	    -54.04913784	     17.97422536	    -28.39334972	      0.00000000	     14.48024256	     -3.04933999	     -2.40486340	    -72.80588024	     17.11737652	    -12.18203572	      0.00000000	     -8.75625408	     10.89498578	      2.42638992	      0.00000000	      0.00000000	      0.00000000	      0.00000000	      0.00000000	      0.00000000	      0.00000000	      0.00000000
      1.71000000	     -2.86105252	     -4.36799825	     -3.41179538	     -0.93167501	      0.83153800	     -0.26613953	     33.15625227	      8.28257438	      2.25574934	    -54.16245001	     18.82997046	    -27.75771646	      0.00000000	     14.82789628	     -4.29542879	     -3.23170504	    -74.64013767	     17.71199103	    -12.78888919	      0.00000000	    -10.15535309	     11.43695493	      2.38322835	      0.00000000	      0.00000000	      0.00000000	      0.00000000	      0.00000000	      0.00000000	      0.00000000	      0.00000000
      1.72000000	     -2.66378704	     -4.33474522	     -3.19944980	     -0.92334101	      0.83319938	     -0.26524131	     32.11534514	      8.28081260	      2.41746487	    -53.85921430	     19.29473805	    -27.79991818	      0.00000000	     16.76089041	     -4.90141395	     -3.80363750	    -76.33406143	     18.09758008	    -13.03582380	      0.00000000	    -10.58037232	     11.40046541	      1.89227493	      0.00000000	      0.00000000	      0.00000000	      0.00000000	      0.00000000	      0.00000000	      0.00000000	      0.00000000
      1.73000000	     -2.91797212	     -4.84118968	     -2.69751358	     -0.91529857	      0.83484012	     -0.26331781	     31.40195486	      8.70682047	      1.92984296	    -53.14262980	     19.59397799	    -28.04554303	      0.00000000	     19.31385718	     -6.22494594	     -3.85374353	    -78.19128943	     18.86058971	    -12.61919276	      0.00000000	    -10.50304819	     11.82789800	      1.38066902	      0.00000000	      0.00000000	      0.00000000	      0.00000000	      0.00000000	      0.00000000	      0.00000000	      0.00000000
      1.74000000	     -2.60794120	     -4.45368264	     -3.38038829	     -0.90556929	      0.83595624	     -0.26354999	     30.29658294	      8.47747427	      2.63812226	    -53.18451320	     19.86504762	    -27.80824584	      0.00000000	     20.80900633	     -6.51233866	     -5.32232333	    -79.51486275	     19.63546394	    -12.31567485	      0.00000000	    -10.94497811	     11.56008653	      1.79980706	      0.00000000	      0.00000000	      0.00000000	      0.00000000	      0.00000000	      0.00000000	      0.00000000	      0.00000000
      1.75000000	     -2.28278563	     -4.26291986	     -3.26241929	     -0.89755985	      0.83778869	     -0.26233064	     29.21755801	      8.21785788	      2.57457847	    -52.94533698	     19.90676438	    -27.75563752	      0.00000000	     22.66073368	     -6.90578424	     -5.82843131	    -80.72904156	     19.79919693	    -12.37104390	      0.00000000	    -11.64851158	     11.13912275	      1.76487659	      0.00000000	      0.00000000	      0.00000000	      0.00000000	      0.00000000	      0.00000000	      0.00000000	      0.00000000
